<svg width="47" height="128" viewBox="0 0 47 128" fill="none" xmlns="http://www.w3.org/2000/svg">
<mask id="mask0_3953_28780" style="mask-type:alpha" maskUnits="userSpaceOnUse" x="0" y="0" width="47" height="128">
<rect width="47" height="128" fill="#D9D9D9"/>
</mask>
<g mask="url(#mask0_3953_28780)">
<path d="M128 64C128 99.3462 99.3462 128 64 128C28.6538 128 0 99.3462 0 64C0 28.6538 28.6538 0 64 0C99.3462 0 128 28.6538 128 64Z" fill="#EFF3FD"/>
</g>
<path fill-rule="evenodd" clip-rule="evenodd" d="M19.7633 56.3347C20.2096 55.8884 20.9333 55.8884 21.3796 56.3347L28.2367 63.1919C28.683 63.6382 28.683 64.3618 28.2367 64.8081L21.3796 71.6653C20.9333 72.1116 20.2096 72.1116 19.7633 71.6653C19.317 71.219 19.317 70.4953 19.7633 70.049L25.8123 64L19.7633 57.951C19.317 57.5047 19.317 56.781 19.7633 56.3347Z" fill="#2351D4"/>
</svg>
