<svg width="45" height="128" viewBox="0 0 45 128" fill="none" xmlns="http://www.w3.org/2000/svg">
    <mask id="mask0_3956_28788" style="mask-type:alpha" maskUnits="userSpaceOnUse" x="0" y="0"
        width="45" height="128">
        <rect width="45" height="128" fill="#D9D9D9" />
    </mask>
    <g mask="url(#mask0_3956_28788)">
        <path
            d="M45 64C45 99.3462 16.3462 128 -19 128C-54.3462 128 -83 99.3462 -83 64C-83 28.6538 -54.3462 0 -19 0C16.3462 0 45 28.6538 45 64Z"
            fill="#EFF3FD" />
    </g>
    <path fill-rule="evenodd" clip-rule="evenodd"
        d="M25.2367 56.3347C25.683 56.781 25.683 57.5047 25.2367 57.951L19.1877 64L25.2367 70.049C25.683 70.4953 25.683 71.219 25.2367 71.6653C24.7904 72.1116 24.0668 72.1116 23.6205 71.6653L16.7633 64.8081C16.317 64.3618 16.317 63.6382 16.7633 63.1919L23.6205 56.3347C24.0668 55.8884 24.7904 55.8884 25.2367 56.3347Z"
        fill="#2351D4" />
</svg>