<svg width="16" height="16" viewBox="0 0 16 16" fill="none" xmlns="http://www.w3.org/2000/svg">
    <g clip-path="url(#clip0_3875_29212)">
        <path fill-rule="evenodd" clip-rule="evenodd"
            d="M2.82146 2.28683C3.13644 2.26714 3.40774 2.50652 3.42742 2.8215L4.14171 14.2501C4.14184 14.2522 4.14196 14.2543 4.14207 14.2564C4.16183 14.641 4.41715 14.8571 4.71425 14.8571H11.2857C11.5798 14.8571 11.834 14.6458 11.8582 14.2509L12.5725 2.8215C12.5922 2.50652 12.8635 2.26714 13.1785 2.28683C13.4934 2.30652 13.7328 2.57781 13.7131 2.89279L12.9989 14.3206C12.9989 14.3206 12.9989 14.3205 12.9989 14.3206C12.9423 15.2463 12.2536 16 11.2857 16H4.71425C3.75538 16 3.05054 15.253 3.0009 14.3185L2.28679 2.89279C2.26711 2.57781 2.50649 2.30652 2.82146 2.28683Z"
            fill="#909090" />
        <path fill-rule="evenodd" clip-rule="evenodd"
            d="M1.14282 2.85715C1.14282 2.54155 1.39866 2.28572 1.71425 2.28572H14.2857C14.6013 2.28572 14.8571 2.54155 14.8571 2.85715C14.8571 3.17274 14.6013 3.42857 14.2857 3.42857H1.71425C1.39866 3.42857 1.14282 3.17274 1.14282 2.85715Z"
            fill="#909090" />
        <path fill-rule="evenodd" clip-rule="evenodd"
            d="M6.56972 1.14286C6.53239 1.14275 6.4954 1.15002 6.46089 1.16426C6.42638 1.17849 6.39502 1.19941 6.36863 1.22581C6.34223 1.25221 6.32131 1.28356 6.30708 1.31807C6.29284 1.35258 6.28557 1.38957 6.28568 1.4269L6.28568 1.42857V2.28572H9.71425V1.42857L9.71425 1.4269C9.71436 1.38957 9.70709 1.35258 9.69285 1.31807C9.67862 1.28356 9.6577 1.2522 9.6313 1.22581C9.60491 1.19941 9.57355 1.17849 9.53904 1.16426C9.50452 1.15002 9.46754 1.14275 9.43021 1.14286L9.42854 1.14286H6.57139L6.56972 1.14286ZM6.57212 3.66699e-06C6.38447 -0.000421876 6.19857 0.0361939 6.02509 0.107755C5.85131 0.179437 5.69342 0.284767 5.5605 0.417686C5.42758 0.550607 5.32226 0.708494 5.25057 0.882268C5.17901 1.05575 5.1424 1.24165 5.14282 1.4293V2.85715C5.14282 3.17274 5.39866 3.42857 5.71425 3.42857H10.2857C10.6013 3.42857 10.8571 3.17274 10.8571 2.85715V1.42942C10.8575 1.24173 10.8209 1.05579 10.7494 0.882268C10.6777 0.708496 10.5723 0.550608 10.4394 0.417686C10.3065 0.284765 10.1486 0.179436 9.97484 0.107755C9.80136 0.036194 9.61546 -0.000421876 9.4278 3.66699e-06H6.57212ZM5.40814 4.57179C5.72353 4.56053 5.98834 4.80707 5.9996 5.12246L6.28531 13.1225C6.29658 13.4379 6.05004 13.7027 5.73465 13.7139C5.41926 13.7252 5.15445 13.4786 5.14319 13.1633L4.85747 5.16325C4.84621 4.84786 5.09275 4.58306 5.40814 4.57179ZM10.5918 4.57179C10.9072 4.58306 11.1537 4.84786 11.1425 5.16325L10.8567 13.1633C10.8455 13.4786 10.5807 13.7252 10.2653 13.7139C9.94989 13.7027 9.70335 13.4379 9.71461 13.1225L10.0003 5.12246C10.0116 4.80707 10.2764 4.56053 10.5918 4.57179ZM7.99996 4.57143C8.31556 4.57143 8.57139 4.82727 8.57139 5.14286V13.1429C8.57139 13.4584 8.31556 13.7143 7.99996 13.7143C7.68437 13.7143 7.42854 13.4584 7.42854 13.1429V5.14286C7.42854 4.82727 7.68437 4.57143 7.99996 4.57143Z"
            fill="#909090" />
    </g>
    <defs>
        <clipPath id="clip0_3875_29212">
            <rect width="16" height="16" fill="white" />
        </clipPath>
    </defs>
</svg>