<svg width="16" height="16" viewBox="0 0 16 16" fill="none" xmlns="http://www.w3.org/2000/svg">
    <path fill-rule="evenodd" clip-rule="evenodd"
        d="M3.32031 3.77358C3.32031 3.2734 3.72579 2.86792 4.22597 2.86792H15.0939C15.5941 2.86792 15.9996 3.2734 15.9996 3.77358C15.9996 4.27376 15.5941 4.67924 15.0939 4.67924H4.22597C3.72579 4.67924 3.32031 4.27376 3.32031 3.77358ZM3.32031 8C3.32031 7.49981 3.72579 7.09434 4.22597 7.09434H15.0939C15.5941 7.09434 15.9996 7.49981 15.9996 8C15.9996 8.50018 15.5941 8.90566 15.0939 8.90566H4.22597C3.72579 8.90566 3.32031 8.50018 3.32031 8ZM3.32031 12.2264C3.32031 11.7262 3.72579 11.3208 4.22597 11.3208H15.0939C15.5941 11.3208 15.9996 11.7262 15.9996 12.2264C15.9996 12.7266 15.5941 13.1321 15.0939 13.1321H4.22597C3.72579 13.1321 3.32031 12.7266 3.32031 12.2264Z"
        fill="#143FBC" />
    <path fill-rule="evenodd" clip-rule="evenodd"
        d="M0 3.77359C0 3.10668 0.540637 2.56604 1.20755 2.56604C1.87446 2.56604 2.41509 3.10668 2.41509 3.77359C2.41509 4.4405 1.87446 4.98113 1.20755 4.98113C0.540637 4.98113 0 4.4405 0 3.77359Z"
        fill="#143FBC" />
    <path fill-rule="evenodd" clip-rule="evenodd"
        d="M0 8.00003C0 7.33312 0.540637 6.79248 1.20755 6.79248C1.87446 6.79248 2.41509 7.33312 2.41509 8.00003C2.41509 8.66694 1.87446 9.20757 1.20755 9.20757C0.540637 9.20757 0 8.66694 0 8.00003Z"
        fill="#143FBC" />
    <path fill-rule="evenodd" clip-rule="evenodd"
        d="M0 12.2264C0 11.5595 0.540637 11.0189 1.20755 11.0189C1.87446 11.0189 2.41509 11.5595 2.41509 12.2264C2.41509 12.8933 1.87446 13.434 1.20755 13.434C0.540637 13.434 0 12.8933 0 12.2264Z"
        fill="#143FBC" />
</svg>