<svg width="149" height="25" viewBox="0 0 149 25" fill="none" xmlns="http://www.w3.org/2000/svg">
    <path
        d="M2.912 11.84H0.608V7.52H2.912V6.912C2.912 3.2 5.248 0.735998 9.472 0.735998C10.336 0.735998 11.456 0.927999 12.128 1.28V5.728C11.712 5.536 11.136 5.408 10.528 5.408C9.312 5.408 8.48 5.92 8.48 7.008V7.52H11.52V11.84H8.48V24H2.912V11.84ZM27.8655 17.088H17.4335C17.6895 18.944 19.4815 19.744 21.3695 19.744C23.1295 19.744 24.4735 18.976 25.2735 18.208L28.0895 21.728C25.9135 23.68 23.7055 24.384 20.9535 24.384C15.3215 24.384 11.7055 20.64 11.7055 15.776C11.7055 10.912 15.3855 7.136 20.2815 7.136C24.9535 7.136 28.1855 10.208 28.1855 14.72C28.1855 15.584 28.0255 16.576 27.8655 17.088ZM20.1535 11.552C18.7135 11.552 17.4335 12.416 17.3375 13.888H22.8095V13.856C22.7455 12.448 21.5935 11.552 20.1535 11.552ZM45.8343 17.088H35.4023C35.6583 18.944 37.4503 19.744 39.3383 19.744C41.0983 19.744 42.4423 18.976 43.2423 18.208L46.0583 21.728C43.8823 23.68 41.6743 24.384 38.9223 24.384C33.2903 24.384 29.6743 20.64 29.6743 15.776C29.6743 10.912 33.3543 7.136 38.2503 7.136C42.9223 7.136 46.1543 10.208 46.1543 14.72C46.1543 15.584 45.9943 16.576 45.8343 17.088ZM38.1223 11.552C36.6823 11.552 35.4023 12.416 35.3063 13.888H40.7783V13.856C40.7143 12.448 39.5623 11.552 38.1223 11.552ZM65.467 24H60.347V21.76C59.035 23.872 56.667 24.384 55.259 24.384C51.163 24.384 47.675 20.896 47.675 15.776C47.675 10.88 50.811 7.136 55.419 7.136C56.987 7.136 58.811 7.68 59.899 9.376V1.12H65.467V24ZM60.027 15.712C60.027 13.408 58.555 12 56.603 12C54.779 12 53.275 13.44 53.275 15.712C53.275 18.016 54.779 19.52 56.603 19.52C58.555 19.52 60.027 18.048 60.027 15.712Z"
        fill="#303136" />
    <path
        d="M68.288 11.84V7.52H70.56V3.072H75.968V7.52H79.456V11.84H75.968V17.504C75.968 18.912 76.736 19.52 77.76 19.52C78.432 19.52 79.232 19.392 79.904 18.912V23.616C79.04 24.032 77.76 24.384 76.16 24.384C72.608 24.384 70.4 22.24 70.4 18.432V11.84H68.288Z"
        fill="#2351D4" />
    <path
        d="M94.216 7.264V12.544C93.96 12.416 93.512 12.352 92.968 12.352C90.184 12.352 88.584 14.528 88.584 17.952V24H83.016V7.52H88.552V10.336C89.384 8.352 91.048 7.136 93.192 7.136C93.576 7.136 93.928 7.168 94.216 7.264ZM100.428 24.384C97.1955 24.384 94.8915 22.304 94.8915 19.424C94.8915 17.024 96.8115 15.296 100.268 14.592L104.524 13.76V13.728C104.524 12.352 103.34 11.872 101.964 11.872C100.108 11.872 98.7315 12.832 97.8675 13.824L94.9555 10.336C96.3635 8.544 99.0195 7.136 102.252 7.136C107.02 7.136 109.836 9.632 109.836 13.696V24H104.684V22.176C104.044 23.424 102.572 24.384 100.428 24.384ZM101.836 17.632C100.844 17.824 100.204 18.272 100.204 19.072C100.204 19.872 100.78 20.384 101.74 20.384C103.468 20.384 104.524 19.2 104.524 17.376V17.12L101.836 17.632ZM121.355 19.52C122.763 19.52 123.691 18.784 124.651 17.664L128.171 20.832C126.635 22.976 124.139 24.384 121.163 24.384C115.947 24.384 112.267 20.608 112.267 15.744C112.267 10.88 115.947 7.136 121.131 7.136C124.171 7.136 126.539 8.384 128.203 10.976L124.523 14.144C123.755 12.704 122.667 12 121.291 12C119.307 12 117.899 13.568 117.899 15.744C117.899 17.952 119.307 19.52 121.355 19.52ZM130.454 24V1.12H136.022V12.896L140.854 7.52H147.414L141.206 14.336L148.022 24H141.366L136.982 17.408L136.022 18.464V24H130.454Z"
        fill="#303136" />
</svg>