<svg width="113" height="29" viewBox="0 0 113 29" fill="none" xmlns="http://www.w3.org/2000/svg">
    <path
        d="M23.4187 6.80294V23.3289L29.2734 23.3289V14.8052C29.2734 12.7836 31.0199 11.2954 32.7231 11.2954C34.5285 11.2954 36.1925 12.4105 36.1925 14.3038V23.3289H42.0472V13.1887C42.0472 8.95292 38.8545 6.41787 34.5966 6.41787C32.4847 6.41787 30.7474 7.09174 29.5893 8.76039V6.80294H23.4187Z"
        fill="#303136" />
    <path
        d="M46.4111 11.135V23.3289H52.3381V11.135H55.5742V6.80294H52.3381V6.28951C52.3381 5.19847 53.2238 4.68504 54.5182 4.68504C55.1654 4.68504 55.7785 4.8134 56.2214 5.00593V0.545519C55.506 0.192537 54.3138 0 53.3941 0C48.8977 0 46.4111 2.47088 46.4111 6.19324V6.80294H43.9585V11.135H46.4111Z"
        fill="#303136" />
    <path
        d="M72.9737 16.3976C73.144 15.8842 73.3144 14.8894 73.3144 14.023C73.3144 9.49844 69.8739 6.41787 64.9007 6.41787C59.6889 6.41787 55.7716 10.2044 55.7716 15.082C55.7716 19.9596 59.6208 23.714 65.616 23.714C68.5455 23.714 70.8958 23.008 73.2122 21.0506L70.2146 17.5208C69.363 18.2909 67.9323 19.0611 66.0588 19.0611C64.0491 19.0611 62.1415 18.2588 61.869 16.3976H72.9737ZM64.7644 10.8462C66.2973 10.8462 67.5236 11.7447 67.5917 13.1566V13.1887H61.7668C61.869 11.7126 63.2316 10.8462 64.7644 10.8462Z"
        fill="#303136" />
    <path
        d="M92.1012 16.3976C92.2715 15.8842 92.4418 14.8894 92.4418 14.023C92.4418 9.49844 89.0014 6.41787 84.0281 6.41787C78.8164 6.41787 74.8991 10.2044 74.8991 15.082C74.8991 19.9596 78.7483 23.714 84.7435 23.714C87.6729 23.714 90.0233 23.008 92.3397 21.0506L89.3421 17.5208C88.4905 18.2909 87.0598 19.0611 85.1863 19.0611C83.1766 19.0611 81.269 18.2588 80.9965 16.3976H92.1012ZM83.8919 10.8462C85.4247 10.8462 86.651 11.7447 86.7192 13.1566V13.1887H80.8943C80.9965 11.7126 82.359 10.8462 83.8919 10.8462Z"
        fill="#303136" />
    <path
        d="M113 23.3289V0.385073H107.073V8.66412C105.915 6.96338 103.973 6.41787 102.304 6.41787C97.3989 6.41787 94.0607 10.1723 94.0607 15.082C94.0607 20.2163 97.7736 23.714 102.134 23.714C103.633 23.714 106.153 23.2006 107.55 21.0827V23.3289H113ZM107.209 15.0178C107.209 17.3603 105.642 18.8364 103.564 18.8364C101.623 18.8364 100.022 17.3282 100.022 15.0178C100.022 12.7395 101.623 11.2954 103.564 11.2954C105.642 11.2954 107.209 12.7074 107.209 15.0178Z"
        fill="#303136" />
    <path fill-rule="evenodd" clip-rule="evenodd"
        d="M10.7733 5C15.6168 5 19.5466 9.03045 19.5466 14.0042C19.5466 18.9779 15.6168 23.0084 10.7733 23.0084C5.92977 23.0084 2 18.9779 2 14.0042C2 9.03045 5.92709 5 10.7733 5ZM10.7733 18.3256C11.6062 18.3256 12.4204 18.0722 13.1129 17.5972C13.8054 17.1223 14.3452 16.4473 14.6639 15.6575C14.9826 14.8678 15.066 13.9987 14.9035 13.1603C14.7409 12.3219 14.3398 11.5518 13.7508 10.9474C13.1618 10.343 12.4114 9.93142 11.5945 9.76471C10.7776 9.598 9.93089 9.68366 9.16141 10.0109C8.39194 10.3381 7.73429 10.8921 7.27162 11.6029C6.80896 12.3137 6.56206 13.1494 6.56215 14.0042C6.56228 15.1504 7.00601 16.2495 7.79574 17.06C8.58546 17.8704 9.6565 18.3256 10.7733 18.3256Z"
        fill="#303136" />
    <path
        d="M21.1738 25.0313C14.9402 29.8632 6.23362 29.8632 0 25.0313L2.34758 22C7.19088 25.7607 13.9715 25.7607 18.8148 22L21.1738 25.0313Z"
        fill="#2351D4" />
</svg>