<svg width="16" height="16" viewBox="0 0 16 16" fill="none" xmlns="http://www.w3.org/2000/svg">
    <path fill-rule="evenodd" clip-rule="evenodd"
        d="M2.87438 3.85046C3.36926 3.40615 4.00502 3.24316 4.46942 3.24316C4.93382 3.24316 5.56959 3.40615 6.06447 3.85046C6.57913 4.31253 6.89943 5.04162 6.76594 6.07383L6.76335 6.09381L6.75869 6.11341C6.61604 6.71281 6.37266 7.2476 5.99213 7.63683C5.60236 8.0355 5.0901 8.25864 4.46942 8.25864C3.84875 8.25864 3.33649 8.0355 2.94672 7.63683C2.56619 7.2476 2.3228 6.71281 2.18016 6.11341L2.17549 6.09381L2.17291 6.07383C2.03942 5.04162 2.35972 4.31253 2.87438 3.85046ZM2.93063 5.95566C3.05403 6.46345 3.24691 6.84735 3.49485 7.10095C3.73674 7.34837 4.04977 7.49208 4.46942 7.49208C4.88908 7.49208 5.20211 7.34837 5.444 7.10095C5.69194 6.84735 5.88482 6.46345 6.00822 5.95566C6.10604 5.16027 5.85846 4.69568 5.55235 4.42085C5.22392 4.12598 4.78253 4.00972 4.46942 4.00972C4.15632 4.00972 3.71492 4.12598 3.3865 4.42085C3.08039 4.69568 2.83281 5.16027 2.93063 5.95566Z"
        fill="#143FBC" />
    <path fill-rule="evenodd" clip-rule="evenodd"
        d="M6.91485 6.12146L6.90832 6.14891C6.76177 6.7647 6.50863 7.32839 6.10217 7.74414C5.68276 8.17313 5.13058 8.41217 4.46965 8.41217C3.80871 8.41217 3.25653 8.17313 2.83713 7.74414C2.43067 7.32839 2.17752 6.7647 2.03098 6.14891L2.02445 6.12146L2.02083 6.09348C1.88153 5.01633 2.21602 4.23531 2.77201 3.73613C3.30027 3.26185 3.975 3.08954 4.46965 3.08954C4.9643 3.08954 5.63903 3.26185 6.16729 3.73613C6.72328 4.23531 7.05777 5.01633 6.91847 6.09348L6.91485 6.12146ZM2.17572 6.09376L2.18038 6.11336C2.32303 6.71276 2.56641 7.24755 2.94694 7.63678C3.33671 8.03545 3.84897 8.25859 4.46965 8.25859C5.09032 8.25859 5.60258 8.03545 5.99235 7.63678C6.37288 7.24755 6.61627 6.71276 6.75891 6.11336L6.76358 6.09376L6.76616 6.07378C6.89965 5.04157 6.57935 4.31248 6.06469 3.85041C5.56981 3.4061 4.93405 3.24311 4.46965 3.24311C4.00525 3.24311 3.36948 3.4061 2.87461 3.85041C2.35995 4.31248 2.03965 5.04157 2.17313 6.07378L2.17572 6.09376ZM3.08221 5.92804C3.20167 6.41493 3.38387 6.76747 3.60488 6.99354C3.81717 7.21067 4.09029 7.33846 4.46965 7.33846C4.84901 7.33846 5.12213 7.21067 5.33441 6.99354C5.55543 6.76747 5.73763 6.41493 5.85708 5.92804C5.94646 5.18335 5.7143 4.7724 5.44998 4.53508C5.15484 4.2701 4.75236 4.16325 4.46965 4.16325C4.18694 4.16325 3.78445 4.2701 3.48932 4.53508C3.22499 4.7724 2.99284 5.18335 3.08221 5.92804ZM2.93086 5.95561C3.05425 6.4634 3.24714 6.8473 3.49507 7.1009C3.73696 7.34832 4.05 7.49203 4.46965 7.49203C4.8893 7.49203 5.20233 7.34832 5.44422 7.1009C5.69216 6.8473 5.88504 6.4634 6.00844 5.95561C6.10626 5.16022 5.85868 4.69563 5.55258 4.4208C5.22415 4.12593 4.78276 4.00967 4.46965 4.00967C4.15654 4.00967 3.71515 4.12593 3.38672 4.4208C3.08061 4.69563 2.83303 5.16022 2.93086 5.95561Z"
        fill="#143FBC" />
    <path fill-rule="evenodd" clip-rule="evenodd"
        d="M0.026567 12.0158C0.538397 9.96236 2.55268 8.99927 4.47211 8.99927C5.2451 8.99927 6.007 9.11575 6.71459 9.43995C6.98894 9.56565 7.10945 9.88995 6.98375 10.1643C6.85805 10.4386 6.53375 10.5592 6.2594 10.4335C5.73416 10.1928 5.13823 10.0921 4.47211 10.0921C2.93081 10.0921 1.5898 10.8077 1.15439 12.054H4.71117C5.01294 12.054 5.25758 12.2987 5.25758 12.6004C5.25758 12.9022 5.01294 13.1469 4.71117 13.1469H0.876745C0.213578 13.1469 -0.0964706 12.5124 0.02638 12.0165L0.026567 12.0158Z"
        fill="#143FBC" />
    <path fill-rule="evenodd" clip-rule="evenodd"
        d="M6.30338 12.9391C6.71976 10.6318 8.95056 9.47168 11.0423 9.47168C13.1341 9.47168 15.365 10.632 15.7814 12.9395L15.7814 12.9395C15.8189 13.1471 15.7825 13.3693 15.6594 13.5491C15.5307 13.7371 15.3185 13.8591 15.064 13.8591H7.02072C6.76642 13.8591 6.55409 13.7372 6.42521 13.5493C6.30196 13.3695 6.2654 13.1471 6.30338 12.9391ZM11.0423 10.2029C9.15804 10.2029 7.35351 11.2363 7.02292 13.0693L7.02283 13.0698L7.02274 13.0703C7.01918 13.0897 7.01986 13.1059 7.0221 13.1177C7.02289 13.1218 7.02381 13.1252 7.02471 13.1278H15.0597C15.0606 13.1251 15.0616 13.1217 15.0624 13.1175C15.0647 13.1055 15.0654 13.0891 15.0618 13.0694C14.731 11.2363 12.9265 10.2029 11.0423 10.2029Z"
        fill="#143FBC" />
    <path fill-rule="evenodd" clip-rule="evenodd"
        d="M15.7811 12.9396L15.7811 12.9396C15.8186 13.1471 15.7822 13.3694 15.6591 13.5491C15.5303 13.7371 15.3181 13.8591 15.0637 13.8591H7.02039C6.76608 13.8591 6.55375 13.7373 6.42487 13.5493C6.30162 13.3696 6.26507 13.1472 6.30304 12.9391C6.71943 10.6319 8.95022 9.47174 11.0419 9.47174C13.1338 9.47174 15.3647 10.6321 15.7811 12.9396ZM6.10156 12.9026C6.05516 13.1571 6.09861 13.4356 6.25599 13.6651C6.42203 13.9073 6.69677 14.0639 7.02039 14.0639H15.0637C15.3875 14.0639 15.6622 13.907 15.828 13.6648C15.9846 13.4362 16.028 13.1593 15.9832 12.9064M6.10156 12.9026C6.54212 10.4621 8.89285 9.26697 11.0419 9.26697C13.1912 9.26697 15.5421 10.4623 15.9826 12.9032L15.9826 12.9032M7.0224 13.0704L7.02249 13.0699L7.02258 13.0694C7.02317 13.0661 7.02377 13.0628 7.02437 13.0595C7.03281 13.0135 7.04218 12.9681 7.05245 12.9231C7.45037 11.1815 9.20841 10.203 11.0419 10.203C12.8754 10.203 14.6335 11.1814 15.0316 12.9231C15.0418 12.9675 15.051 13.0125 15.0594 13.0579C15.0601 13.0617 15.0608 13.0656 15.0615 13.0694C15.0651 13.0891 15.0643 13.1056 15.0621 13.1176C15.0613 13.1218 15.0603 13.1252 15.0594 13.1279H7.02437C7.02348 13.1252 7.02255 13.1219 7.02176 13.1178C7.01952 13.106 7.01884 13.0898 7.0224 13.0704ZM14.8211 12.9231C14.4303 11.3337 12.8008 10.4077 11.0419 10.4077C9.283 10.4077 7.65354 11.3338 7.26294 12.9231H14.8211Z"
        fill="#143FBC" />
    <path fill-rule="evenodd" clip-rule="evenodd"
        d="M9.23853 2.80147C9.81852 2.28074 10.5636 2.08972 11.1079 2.08972C11.6522 2.08972 12.3973 2.28074 12.9773 2.80147C13.5805 3.34302 13.9559 4.19751 13.7994 5.40725L13.7964 5.43067L13.7909 5.45364C13.6237 6.15614 13.3385 6.78291 12.8925 7.23908C12.4357 7.70633 11.8353 7.96784 11.1079 7.96784C10.3805 7.96784 9.78012 7.70633 9.32331 7.23908C8.87733 6.78291 8.59208 6.15614 8.4249 5.45364L8.41944 5.43067L8.41641 5.40725C8.25996 4.19751 8.63535 3.34302 9.23853 2.80147ZM9.30446 5.26876C9.44908 5.86388 9.67514 6.31381 9.96571 6.61103C10.2492 6.90101 10.6161 7.06944 11.1079 7.06944C11.5997 7.06944 11.9666 6.90101 12.2501 6.61103C12.5407 6.31381 12.7667 5.86388 12.9114 5.26876C13.026 4.33656 12.7359 3.79207 12.3771 3.46997C11.9922 3.12438 11.4749 2.98812 11.1079 2.98812C10.741 2.98812 10.2236 3.12438 9.83873 3.46997C9.47997 3.79207 9.18981 4.33656 9.30446 5.26876Z"
        fill="#143FBC" />
    <path fill-rule="evenodd" clip-rule="evenodd"
        d="M13.9479 5.45838L13.9406 5.4892C13.7695 6.20808 13.4745 6.86376 13.0026 7.34645C12.5161 7.84401 11.8758 8.12143 11.1081 8.12143C10.3404 8.12143 9.70016 7.84401 9.21372 7.34645C8.74181 6.86376 8.4468 6.20808 8.27572 5.4892L8.26839 5.45838L8.26433 5.42696C8.10207 4.17228 8.49165 3.26586 9.13615 2.6872C9.74953 2.1365 10.5336 1.93616 11.1081 1.93616C11.6827 1.93616 12.4667 2.1365 13.0801 2.6872C13.7246 3.26586 14.1142 4.17228 13.952 5.42696L13.9479 5.45838ZM9.45603 5.24119C9.59672 5.81545 9.81211 6.23401 10.0758 6.50368C10.3296 6.76337 10.6566 6.91588 11.1081 6.91588C11.5597 6.91588 11.8866 6.76337 12.1405 6.50368C12.4042 6.23401 12.6196 5.81545 12.7602 5.24119C12.8664 4.35967 12.5917 3.86883 12.2747 3.58426C11.9231 3.26856 11.4447 3.14171 11.1081 3.14171C10.7716 3.14171 10.2932 3.26856 9.94155 3.58426C9.62459 3.86883 9.34984 4.35967 9.45603 5.24119ZM9.30468 5.26877C9.4493 5.86389 9.67536 6.31382 9.96594 6.61104C10.2494 6.90102 10.6163 7.06945 11.1081 7.06945C11.6 7.06945 11.9668 6.90102 12.2503 6.61104C12.5409 6.31382 12.767 5.86389 12.9116 5.26877C13.0262 4.33657 12.7361 3.79208 12.3773 3.46998C11.9924 3.12439 11.4751 2.98814 11.1081 2.98814C10.7412 2.98814 10.2239 3.12439 9.83895 3.46998C9.4802 3.79208 9.19003 4.33657 9.30468 5.26877ZM11.1081 2.08973C10.5639 2.08973 9.81875 2.28075 9.23875 2.80148C8.63557 3.34303 8.26019 4.19752 8.41663 5.40726L8.41966 5.43068L8.42513 5.45365C8.59231 6.15615 8.87755 6.78292 9.32353 7.23909C9.78034 7.70634 10.3807 7.96785 11.1081 7.96785C11.8356 7.96785 12.4359 7.70634 12.8927 7.23909C13.3387 6.78292 13.624 6.15615 13.7911 5.45365L13.7966 5.43068L13.7996 5.40726C13.9561 4.19752 13.5807 3.34303 12.9775 2.80148C12.3975 2.28075 11.6524 2.08973 11.1081 2.08973Z"
        fill="#143FBC" />
</svg>